<svg width="239" height="120" viewBox="0 0 239 120" fill="none" xmlns="http://www.w3.org/2000/svg">
<rect width="239" height="120" rx="60" fill="white"/>
<rect y="57" width="73" height="63" fill="white"/>
<path d="M57.2422 69.2891C56.9688 72.2188 55.9596 74.4714 54.2148 76.0469C52.4701 77.6094 50.1003 78.3906 47.1055 78.3906C45.0872 78.3906 43.2969 77.8828 41.7344 76.8672C40.1849 75.8385 38.9805 74.3867 38.1211 72.5117C37.2617 70.6237 36.8255 68.4688 36.8125 66.0469V61.6523C36.8125 59.2305 37.2357 57.069 38.082 55.168C38.9284 53.2539 40.1328 51.776 41.6953 50.7344C43.2708 49.6927 45.0742 49.1719 47.1055 49.1719C50.0742 49.1719 52.4375 49.9531 54.1953 51.5156C55.9531 53.0781 56.9688 55.3177 57.2422 58.2344H56.1875C55.888 55.6172 54.9766 53.6315 53.4531 52.2773C51.9297 50.9102 49.8138 50.2266 47.1055 50.2266C44.3451 50.2266 42.112 51.2682 40.4062 53.3516C38.7135 55.4349 37.8672 58.2279 37.8672 61.7305V65.9102C37.8672 68.1497 38.2448 70.1354 39 71.8672C39.7552 73.5859 40.8359 74.9271 42.2422 75.8906C43.6615 76.8542 45.2826 77.3359 47.1055 77.3359C49.8268 77.3359 51.9492 76.6654 53.4727 75.3242C55.0091 73.9831 55.9141 71.9714 56.1875 69.2891H57.2422ZM84.1172 78H83.0625V63.8984H64.8984V78H63.8438V49.5625H64.8984V62.8438H83.0625V49.5625H84.1172V78ZM107.262 69.5039H93.3359L90.1719 78H89.0195L99.6641 49.5625H100.953L111.598 78H110.445L107.262 69.5039ZM93.7266 68.4492H106.871L100.309 50.832L93.7266 68.4492ZM132.574 50.6172H122.223V78H121.168V50.6172H110.816V49.5625H132.574V50.6172Z" fill="black"/>
<circle cx="169" cy="72" r="7" fill="#C4C4C4"/>
<circle cx="197" cy="72" r="7" fill="#C4C4C4"/>
<circle cx="141" cy="72" r="7" fill="#C4C4C4"/>
<path d="M153.86 37.68H158.12V69.12C158.12 71.96 157.26 74.26 155.54 76.02C153.86 77.74 151.34 78.6 147.98 78.6C144.62 78.6 142.08 77.74 140.36 76.02C138.68 74.26 137.84 71.96 137.84 69.12V37.68H142.1V69C142.1 72.84 144.06 74.76 147.98 74.76C151.9 74.76 153.86 72.84 153.86 69V37.68ZM181.329 46.98C181.329 43.3 179.429 41.46 175.629 41.46H170.349V60.36H175.629C179.429 60.36 181.329 58.54 181.329 54.9V46.98ZM166.089 37.68H175.869C179.029 37.68 181.429 38.5 183.069 40.14C184.749 41.78 185.589 43.98 185.589 46.74V55.08C185.589 57.88 184.769 60.1 183.129 61.74C181.489 63.34 179.069 64.14 175.869 64.14H170.349V78H166.089V37.68Z" fill="#D02B83"/>
</svg>
